<?xml version="1.0" encoding="UTF-8"?>
<svg width="1440" height="420" viewBox="0 0 1440 420" fill="none" xmlns="http://www.w3.org/2000/svg">
  <rect x="32" y="20" width="356" height="356" rx="84" fill="#090013"/>
  <circle cx="210" cy="198" r="122" fill="url(#portal)"/>
  <circle cx="210" cy="198" r="52" fill="#090013"/>
  <circle cx="210" cy="198" r="9" fill="#FFFFFF"/>
  <circle cx="210" cy="198" r="26" fill="#DFF4FF" fill-opacity="0.92"/>
  <circle cx="210" cy="198" r="76" stroke="#FFFFFF" stroke-width="10"/>
  <path d="M112 198H171" stroke="#FFFFFF" stroke-width="10" stroke-linecap="round"/>
  <path d="M249 198H308" stroke="#FFFFFF" stroke-width="10" stroke-linecap="round"/>
  <path d="M210 100V159" stroke="#FFFFFF" stroke-width="10" stroke-linecap="round"/>
  <path d="M210 237V296" stroke="#FFFFFF" stroke-width="10" stroke-linecap="round"/>
  <path d="M74 74H128" stroke="#FFFFFF" stroke-width="12" stroke-linecap="round"/>
  <path d="M74 74V128" stroke="#FFFFFF" stroke-width="12" stroke-linecap="round"/>
  <path d="M346 74H292" stroke="#FFFFFF" stroke-width="12" stroke-linecap="round"/>
  <path d="M346 74V128" stroke="#FFFFFF" stroke-width="12" stroke-linecap="round"/>
  <path d="M74 346H128" stroke="#FFFFFF" stroke-width="12" stroke-linecap="round"/>
  <path d="M74 346V292" stroke="#FFFFFF" stroke-width="12" stroke-linecap="round"/>
  <path d="M346 346H292" stroke="#FFFFFF" stroke-width="12" stroke-linecap="round"/>
  <path d="M346 346V292" stroke="#FFFFFF" stroke-width="12" stroke-linecap="round"/>

  <text x="436" y="214" font-size="126" font-weight="700"
        font-family="SF Pro Display, Inter, Arial, sans-serif"
        fill="#0C122A">QuickSnap</text>
  <text x="440" y="276" font-size="38" font-weight="500"
        font-family="SF Pro Text, Inter, Arial, sans-serif"
        fill="#5A6785">Cosmic precision for every screenshot.</text>

  <defs>
    <radialGradient id="portal" cx="0" cy="0" r="1" gradientUnits="userSpaceOnUse" gradientTransform="translate(210 198) rotate(90) scale(122)">
      <stop offset="0" stop-color="#FFFFFF"/>
      <stop offset="0.08" stop-color="#E0F2FE"/>
      <stop offset="0.20" stop-color="#7DD3FC"/>
      <stop offset="0.38" stop-color="#3B82F6"/>
      <stop offset="0.55" stop-color="#1D4ED8"/>
      <stop offset="0.72" stop-color="#312E81"/>
      <stop offset="0.88" stop-color="#1E0A36"/>
      <stop offset="1" stop-color="#0A0118"/>
    </radialGradient>
  </defs>
</svg>
