<?xml version="1.0" encoding="UTF-8"?>
<svg width="1400" height="400" viewBox="0 0 1400 400" fill="none" xmlns="http://www.w3.org/2000/svg">
  <defs>
    <linearGradient id="bg" x1="24" y1="376" x2="376" y2="24" gradientUnits="userSpaceOnUse">
      <stop offset="0" stop-color="#5C31FA"/>
      <stop offset="1" stop-color="#00D4FF"/>
    </linearGradient>
    <filter id="shadow" x="-20%" y="-20%" width="140%" height="140%">
      <feDropShadow dx="0" dy="-4" stdDeviation="10" flood-color="#000000" flood-opacity="0.20"/>
    </filter>
  </defs>

  <rect x="24" y="24" width="352" height="352" rx="96" fill="url(#bg)"/>

  <g filter="url(#shadow)">
    <path fill-rule="evenodd" clip-rule="evenodd" fill="rgba(255,255,255,0.96)" d="
      M 110.4 120
      H 289.6
      A 42 42 0 0 1 331.6 162
      V 238
      A 42 42 0 0 1 289.6 280
      H 110.4
      A 42 42 0 0 1 68.4 238
      V 162
      A 42 42 0 0 1 110.4 120
      Z

      M 123.2 258.8
      H 161.6
      A 25.2 25.2 0 0 1 186.8 284
      V 279.8
      A 25.2 25.2 0 0 1 161.6 305
      H 123.2
      A 25.2 25.2 0 0 1 98 279.8
      V 284
      A 25.2 25.2 0 0 1 123.2 258.8
      Z

      M 242 200
      A 60 60 0 1 0 122 200
      A 60 60 0 1 0 242 200
      Z
    "/>
  </g>

  <circle cx="200" cy="200" r="54.9" stroke="rgba(255,255,255,0.85)" stroke-width="7.7"/>
  <circle cx="200" cy="200" r="34.3" stroke="rgba(199,247,255,0.70)" stroke-width="5.1"/>

  <path d="
    M 271 271 H 319
    M 295 247 V 295
    M 277 253 L 313 289
    M 277 289 L 313 253
  " stroke="rgba(255,255,255,0.92)" stroke-width="7.7" stroke-linecap="round"/>

  <text x="430" y="242" font-size="128" font-weight="700" letter-spacing="-1.5"
        font-family="system-ui, -apple-system, BlinkMacSystemFont, 'Segoe UI', sans-serif"
        fill="#0B1020">QuickSnap</text>
  <text x="432" y="300" font-size="40" font-weight="500"
        font-family="system-ui, -apple-system, BlinkMacSystemFont, 'Segoe UI', sans-serif"
        fill="#4B5563">Fast screenshot capture + annotation</text>
</svg>

